<svg width="21" height="21" viewBox="0 0 21 21" fill="none" xmlns="http://www.w3.org/2000/svg">
<path d="M18.6713 8.77352H18V8.73893H10.5V12.0723H15.2096C14.5225 14.0127 12.6763 15.4056 10.5 15.4056C7.73877 15.4056 5.50002 13.1668 5.50002 10.4056C5.50002 7.64435 7.73877 5.4056 10.5 5.4056C11.7746 5.4056 12.9342 5.88643 13.8171 6.67185L16.1742 4.31477C14.6859 2.92768 12.695 2.07227 10.5 2.07227C5.89794 2.07227 2.16669 5.80352 2.16669 10.4056C2.16669 15.0077 5.89794 18.7389 10.5 18.7389C15.1021 18.7389 18.8334 15.0077 18.8334 10.4056C18.8334 9.84685 18.7759 9.30143 18.6713 8.77352Z" fill="#FFC107"/>
<path d="M3.1275 6.52685L5.86542 8.53477C6.60625 6.7006 8.40042 5.4056 10.5 5.4056C11.7746 5.4056 12.9342 5.88643 13.8171 6.67185L16.1742 4.31477C14.6858 2.92768 12.695 2.07227 10.5 2.07227C7.29917 2.07227 4.52334 3.87935 3.1275 6.52685Z" fill="#FF3D00"/>
<path d="M10.5 18.7389C12.6525 18.7389 14.6083 17.9151 16.0871 16.5756L13.5079 14.3931C12.6433 15.051 11.5865 15.4067 10.5 15.4056C8.33249 15.4056 6.49207 14.0235 5.79874 12.0947L3.08124 14.1885C4.4604 16.8872 7.26124 18.7389 10.5 18.7389Z" fill="#4CAF50"/>
<path d="M18.6713 8.77335H18V8.73877H10.5V12.0721H15.2096C14.8809 12.9956 14.2889 13.8026 13.5067 14.3934L13.5079 14.3925L16.0871 16.575C15.9046 16.7409 18.8333 14.5721 18.8333 10.4054C18.8333 9.84669 18.7758 9.30127 18.6713 8.77335Z" fill="#1976D2"/>
</svg>
